<?xml version="1.0" encoding="utf-8"?>
<!-- Generator: Adobe Illustrator 25.3.1, SVG Export Plug-In . SVG Version: 6.00 Build 0)  -->
<svg version="1.1" id="Layer_1" xmlns="http://www.w3.org/2000/svg" xmlns:xlink="http://www.w3.org/1999/xlink" x="0px" y="0px"
	 viewBox="0 0 512 512" style="enable-background:new 0 0 512 512;" xml:space="preserve">
<style type="text/css">
	.st0{fill:url(#SVGID_1_);}
	.st1{fill:#231F20;}
	.st2{font-family:'ArialMT';}
	.st3{font-size:76.6771px;}
	.st4{font-family:'ErasITC-Light';}
</style>
<linearGradient id="SVGID_1_" gradientUnits="userSpaceOnUse" x1="361.5881" y1="339.6865" x2="151.0085" y2="640.4254" gradientTransform="matrix(1 0 0 1 0 -280)">
	<stop  offset="0" style="stop-color:#2ADEFF"/>
	<stop  offset="1" style="stop-color:#3B5BA9"/>
</linearGradient>
<path class="st0" d="M134,261.2c-9.8-4.1-18.4-7.7-27-11.5c-10.3-4.6-20-10.1-27.8-18.5c-12.2-13.2-11.9-30,0.8-42.6
	c4.2-4.1,8.8-8,13.8-10.9c8.2-4.7,16.7-8.7,25.3-12.4c11.8-5.1,13.4-9,8.1-21c-5.8-13.3-10.7-26.8-10.7-41.6
	c0-22.3,13-34.4,35.4-32.3c14.2,1.4,27.7,5.4,40.4,12.1c3.9,2.1,7.8,4.1,12.8,6.8c1.5-3.8,3-7.2,4.2-10.6
	c4.6-13.4,10.2-26.3,19-37.7c2.1-2.8,4.4-5.5,7-7.9c13.5-12.3,28.5-12.2,41.7,0.4c12.9,12.4,20.2,28,25.3,44.9
	c0.9,3.1,1.4,6.3,2.4,10.7c3.4-1.5,6.6-2.8,9.5-4.3c12.7-6.4,25.8-11.8,39.9-13.7c6-0.8,12.4-1.1,18.4,0
	c14.1,2.6,21.8,11.9,23.1,26.2c1,10.5-1.2,20.5-4.4,30.4c-2.1,6.4-4.8,12.7-7.4,18.9c-3.2,7.6-1.5,12.1,6.6,14.8
	c12.4,4.2,24,9.9,33.8,18.6c5,4.4,9.7,9.5,13.3,15.2c6.6,10.4,6.5,21.6-1.2,31.3c-4.7,5.9-10.4,11.6-16.8,15.2
	c-11.5,6.4-23.9,11.2-36,16.7c-1.5,0.7-3,1.4-5.3,2.4c1.6,3,3,5.5,4.4,8c7.3,13.6,12.8,27.8,13.6,43.4c0.1,2.1,0.2,4.1,0.1,6.2
	c-0.8,22.3-15.2,34.5-37.4,31.7c-13.5-1.7-26.4-6-38.8-11.6c-3.9-1.8-7.9-3.5-12.6-5.5c-1.6,3.4-2.7,6-4,8.6
	c-5.6,11.3-10.6,23-17.2,33.8c-3.7,6.1-9.2,11.6-15,15.8c-10.1,7.2-21.4,7.4-31.2-0.4c-6.3-5-12.1-11.3-16.3-18.2
	c-5.6-9.2-9.7-19.5-14-29.4c-3.2-7.3-7-9.3-14.3-6.1c-14.4,6.1-28.8,12-44.7,13.1c-17.9,1.3-32.2-8.4-33.7-23.8
	c-0.7-7.2-0.8-14.9,1-21.9c2.9-11.3,7.4-22.3,11.4-33.3C130.7,267.9,132.3,265.1,134,261.2z M193.7,187.5c-0.6-0.1-1.2-0.2-1.8-0.3
	c-3.7,8.9-5.7,18.3-4.9,28c2.6,33.9,24.6,57.7,55.8,64.4c11.1,2.4,22.3,2.2,32.8-3c16.5-8.2,25.5-22,25.7-40.2
	c0.2-19.1-9.6-33-26.3-41.8c-5.1-2.7-10.7-4.7-17.3-3c-0.1,2.2-0.2,4.1-0.4,6.1c-0.2,1.8-0.7,3.6-1.4,6.7
	c-8.8-7.9-16.5-14.9-24.2-21.9c6.4-8.9,19.6-20.3,25.1-21.8c0.8,11.6,0.8,11.6,12.6,13.7c26.6,4.8,48.1,29.7,49.5,57.1
	c0.1,1.5,0.5,2.9,0.9,5.6c5.4-12.1,7-26.4,4.7-37.3c-7-33.1-31.6-54.7-65.3-57c-18.2-1.2-32.3,7.3-41.5,22.2
	c-15.4,25-2,57.9,26.1,66.3c3.4,1,7.2,1,11.4,1.5c0.6-4.9,1-8.6,1.7-13.9c9,8.1,17.1,15.4,25.8,23.3c-9,8.1-16.9,15.3-25.9,23.5
	c-0.4-3.6-0.6-5.3-0.7-7c-0.4-7.5-0.4-7.4-8-8.7c-26.9-4.5-43.6-20.5-51.4-46.1C195.1,198.6,194.7,193,193.7,187.5z M263.7,124
	c44.2,7.6,70.7,32.3,80.6,76.6c7-10.8,13.2-20,19-29.4c0.9-1.5,0.7-4,0.5-5.9c-0.9-8.2,0.6-11.2,7.6-14.8c2-1,4.5-2.1,5.4-3.9
	c7.1-14,12.8-28.6,13-44.5c0.3-17.7-10.2-27.6-28-25.8c-10.1,1-20.3,3.6-29.9,7.1c-23.4,8.6-44.1,22.1-64.1,36.7
	C266.9,120.9,265.9,121.9,263.7,124z M200.8,143.5c2-0.9,3.4-1.4,4.5-2.1c13.4-9.8,28.4-15.2,44.9-16.6c2.2-0.2,4.5-1.4,6.3-2.7
	c12.3-8.5,24.5-17.2,36.9-25.6c4-2.7,5.3-5.7,4.5-10.4C294.7,69.5,287.3,55,276.9,42c-2.7-3.4-6.2-6.4-9.8-8.8
	c-5.3-3.6-11.3-4.7-17.6-2.4c-7.9,2.8-13.4,8.3-18.1,14.8c-9.5,13-15.4,27.7-19.9,43C206.3,106.2,201.5,123.9,200.8,143.5z
	 M328.1,265.9c14.8-3.3,28.9-6,42.7-9.8c18.2-5,35.9-11.5,51.1-23.1c18-13.7,18.9-29.5,2.5-45.2c-9.5-9.1-20.7-15.4-32.9-20.1
	C385,165,383,162,381,167c-1.3,3.4-5,3-7,3c-3.7,0-4.8,4.2-6.8,7.1c-5.8,8.5-11.6,17-17.7,25.3c-3.2,4.4-5.2,8.9-5.4,14.5
	c-0.3,5.8-1.2,11.8-3.1,17.2C337.5,244.3,333,254.1,328.1,265.9z M121.3,103.3c0.6,15.7,6.1,30.7,13.7,44.6
	c3.1,5.8,10.6,8.4,17.4,7.4c12.2-1.8,24.2-4.8,36.3-7c3.4-0.6,5.1-2.1,5.8-5.5c2.6-13.8,5.3-27.7,8.2-41.4c0.8-3.7,0.2-6.1-3.1-8.1
	c-15.6-9.3-32-16.2-50.3-17.6c-14.5-1.1-24.5,5.8-27.1,18.4C121.5,96.8,121.6,99.8,121.3,103.3z M135,255.1c1.7-1.4,4.2-2.8,5.6-4.9
	c8-12,15.6-24.2,23.6-36.2c2.4-3.6,2.1-6.1-0.3-9.4c-6-8.3-11.9-16.8-17.5-25.4c-4.8-7.4-14.4-10.2-20.2-10.4
	c-0.4,0-1.1,0.2-1.7,0.4c-15.3,5.4-30.2,11.7-41.7,23.8c-10.3,10.9-10.3,24.1,0,34.6C96.9,241.9,115.7,247.6,135,255.1z
	 M120.9,317.1c0.8,4.6,1,9.4,2.7,13.7c3.3,8.4,10.3,12.5,19.2,13.2c18.6,1.3,35.1-5.5,51.2-13.6c1.4-0.7,2.4-2.5,3-4
	c3.3-7.7,4.2-15.4,1.8-23.7c-1.9-6.7-2.8-13.8-4.1-20.7c-1.6-7.9-1.6-7.7-9.2-9.2c-10.6-2.1-21.3-4.1-31.9-6.7
	c-14.4-3.5-14.4-3.8-20.6,9.7C127.1,289,121.6,302.2,120.9,317.1z M309.8,326.2c13.7,9.3,37.8,17.5,52,17.9
	c18.8,0.6,28.7-8.6,28.6-27.5c-0.1-18.5-6.8-34.9-16.5-50.4c-2-3.2-4.5-3.9-8.2-3.1c-12.6,2.7-25.2,5.4-38,7.6
	c-4.6,0.8-6.5,2.8-7.2,7.2c-1.4,9-2.9,18-4.9,26.8C314.2,311.9,311.9,318.9,309.8,326.2z M301.7,329.8
	c-15.6-9.2-30.1-17.6-44.4-26.2c-2.9-1.7-5.4-1.6-8.1,0.3c-5.5,3.9-11.1,7.7-16.9,11.2c-6.7,4.1-15.3,8.9-16.3,13.9
	c-0.2,1.2-1.7,3.9-2,5c-0.5,1.9-0.1,4.7,0.4,6.4c5.5,16.3,12.4,31.8,25.7,43.5c9.7,8.6,21.1,8.7,31.2,0.4c1.8-1.5,3.5-3.1,5-4.9
	C288.3,364.9,294.8,347.6,301.7,329.8z M314.3,279.6c-9.3,5-17,9.9-25.3,13.3c-8.1,3.3-16.9,5-27.4,7.9
	c14.8,8.2,27.8,15.3,41.9,23.1C309.1,309,312.2,294.9,314.3,279.6z M169.7,219.6c-0.8,0-1.6-0.1-2.5-0.1
	c-8,12.1-15.9,24.1-23.9,36.2c9.1,5.2,33.5,10.5,43.8,9.5C178,251,171.1,236.4,169.7,219.6z M189.7,155.9c-0.5-0.6-0.9-1.1-1.4-1.7
	c-11.5,2.1-23,3.9-34.3,6.4c-5.1,1.1-7.8,8.2-4.8,12.9c5.9,9.3,12.4,18.2,18.7,27.2c0.6-0.1,1.2-0.3,1.8-0.4
	C172.6,183.9,179.4,169.2,189.7,155.9z M246,301c-15-3.1-30.2-10.3-42.2-20.2c-0.5,0.4-1,0.7-1.5,1c2.3,11,4.5,22,6.8,33
	c5.1,1.8,7.5,3.8,13.9,1.2 M139,167c3-1,3.5-2.1,3.8-4.1c0.5-3-1.7-4.8-4.8-4.8c-3.1,0-5.3,1.9-4.9,4.8C133.5,164.9,136,168,139,167
	z M378,162c0-4-2-5.3-4.1-5.6c-2.9-0.4-5,1.4-5.2,4.4c-0.2,3.1,1.5,4.9,4.6,5C375,166,377,166,378,162z M207,321
	c-4,2-3.8,3.8-3.6,5.7c0.2,1.5,2.9,3.7,4.6,3.8c2.9,0.1,4.8-2.5,4-5.4C211.5,323.3,211,321,207,321z"/>
<text transform="matrix(1.0042 0 0 1 59.4381 476.9561)" class="st1 st2 st3">React</text>
<text transform="matrix(1.0042 0 0 1 249.3922 476.9561)" class="st1 st4 st3"> Swap</text>
</svg>
